<svg width="64" height="64" viewBox="0 0 64 64" fill="none" xmlns="http://www.w3.org/2000/svg">
  <path d="M32 8C28.6863 8 26 10.6863 26 14V30C26 33.3137 28.6863 36 32 36C35.3137 36 38 33.3137 38 30V14C38 10.6863 35.3137 8 32 8Z" fill="white" fill-opacity="0.9"/>
  <path d="M22 26V30C22 36.6274 27.3726 42 34 42V48H30C29.4477 48 29 48.4477 29 49C29 49.5523 29.4477 50 30 50H34H34H34H30H34H34V50H30H34V50H30V50H34V48H30V42C23.3726 42 18 36.6274 18 30V26C18 25.4477 18.4477 25 19 25C19.5523 25 20 25.4477 20 26V30C20 35.5228 24.4772 40 30 40V48H34V40C39.5228 40 44 35.5228 44 30V26C44 25.4477 44.4477 25 45 25C45.5523 25 46 25.4477 46 26V30C46 36.6274 40.6274 42 34 42V48H38C38.5523 48 39 48.4477 39 49C39 49.5523 38.5523 50 38 50H34H34H30H34H34V50H38H34V50H38V50H34V48H38V42C44.6274 42 50 36.6274 50 30V26C50 25.4477 49.5523 25 49 25C48.4477 25 48 25.4477 48 26V30C48 35.5228 43.5228 40 38 40V48H34V40C28.4772 40 24 35.5228 24 30V26C24 25.4477 23.5523 25 23 25C22.4477 25 22 25.4477 22 26Z" fill="white" fill-opacity="0.9"/>
  <circle cx="32" cy="30" r="26" stroke="white" stroke-opacity="0.2" stroke-width="2"/>
</svg>
